<!DOCTYPE svg PUBLIC "-//W3C//DTD SVG 1.1//EN" "http://www.w3.org/Graphics/SVG/1.1/DTD/svg11.dtd">
<!-- Uploaded to: SVG Repo, www.svgrepo.com, Transformed by: SVG Repo Mixer Tools -->
<svg fill="#008000" height="800px" width="800px" version="1.1" id="Layer_1" xmlns="http://www.w3.org/2000/svg" xmlns:xlink="http://www.w3.org/1999/xlink" viewBox="0 0 511.75 511.75" xml:space="preserve" stroke="#008000" stroke-width="0.00511755">
<g id="SVGRepo_bgCarrier" stroke-width="0"/>
<g id="SVGRepo_tracerCarrier" stroke-linecap="round" stroke-linejoin="round" stroke="#CCCCCC" stroke-width="6.1410599999999995"/>
<g id="SVGRepo_iconCarrier"> <g> <g> <path d="M436.891,74.867c-99.819-99.819-262.208-99.819-362.027,0c-99.819,99.797-99.819,262.229,0,362.027 c49.899,49.92,115.456,74.859,181.013,74.859s131.093-24.939,181.013-74.859C536.709,337.096,536.709,174.664,436.891,74.867z M398.96,185.629L249.627,334.963c-4.16,4.16-9.621,6.251-15.083,6.251c-5.461,0-10.923-2.091-15.083-6.251l-85.333-85.333 c-8.341-8.341-8.341-21.824,0-30.165c8.341-8.341,21.824-8.341,30.165,0l70.251,70.251l134.251-134.251 c8.341-8.341,21.824-8.341,30.165,0C407.301,163.805,407.301,177.288,398.96,185.629z"/> </g> </g> </g>
</svg>