<?xml version="1.0" encoding="utf-8"?>

<!DOCTYPE svg PUBLIC "-//W3C//DTD SVG 1.1//EN" "http://www.w3.org/Graphics/SVG/1.1/DTD/svg11.dtd">
<!-- Uploaded to: SVG Repo, www.svgrepo.com, Generator: SVG Repo Mixer Tools -->
<svg height="800px" width="800px" version="1.1" id="_x32_" xmlns="http://www.w3.org/2000/svg" xmlns:xlink="http://www.w3.org/1999/xlink" 
	 viewBox="0 0 512 512"  xml:space="preserve">
<style type="text/css">
	.st0{fill:#000000;}
</style>
<g>
	<path class="st0" d="M471.786,276.239L234.34,41.502l0.064,0.068C207.64,14.794,172.399,1.333,137.313,1.357
		c-35.086-0.023-70.33,13.437-97.096,40.214C13.434,68.346-0.018,103.58,0,138.669c-0.018,35.09,13.434,70.331,40.218,97.1
		l237.439,234.73l-0.064-0.068c26.772,26.776,62.006,40.228,97.092,40.214c35.09,0.014,70.323-13.438,97.095-40.207
		c26.784-26.784,40.236-62.032,40.221-97.114C512.016,338.241,498.567,303.008,471.786,276.239z M79.604,178.202
		c-22.745-22.74-22.745-60.226,0.287-83.254c11.151-11.155,25.982-17.292,41.763-17.292L79.604,178.202z M448.653,447.311
		c-20.466,20.45-47.14,30.615-73.969,30.623c-26.826-0.008-53.504-10.173-73.973-30.631l-0.053-0.052l-0.007-0.016L191.244,339.079
		c0.321-2.108,0.805-4.58,1.504-7.323c2.532-10.134,7.629-23.783,15.319-38.219c11.522-21.69,28.881-45.208,51.826-63.339
		c22.838-18.017,50.855-30.896,85.582-32.846l103.137,101.958l0.049,0.038c20.45,20.473,30.615,47.144,30.638,73.973
		C479.276,400.152,469.119,426.83,448.653,447.311z"/>
</g>
</svg>